<svg width="54" height="78" fill="none" xmlns="http://www.w3.org/2000/svg"><path d="M53 39a6 6 0 1 1-12 0 6 6 0 0 1 12 0Z" fill="#89CEEA"/><path d="M47 33h-2a6 6 0 0 1 0 11 6 6 0 0 0 8-5c0-4-3-6-6-6Z" fill="#78C0DE"/><path d="M37 60v16H1V60a12 12 0 0 1 12-12h12a12 12 0 0 1 12 12Z" fill="#E8E1D5"/><path d="M28 48a12 12 0 0 0-3 0h-4a12 12 0 0 1 12 12v16h4V60c0-6-3-10-9-12Z" fill="#D6CFC4"/><path d="m28 48-9 28-9-28a12 12 0 0 1 3 0h12a12 12 0 0 1 3 0Z" fill="#FF573D"/><path d="m26 48 1 1c-1 3-4 5-8 5s-7-2-7-5v-1h3v-9h9v9h2Z" fill="#EBA28C"/><path d="M19 76a2394 2394 0 0 0-5-29H8l-1 1v8l2 2v4l10 14ZM19 76a2384 2384 0 0 1 5-29h7v1l1 8-3 2 1 4-11 14Z" fill="#C4BEB4"/><path d="M8 24c0 3-1 4-3 4s-4-2-4-4c0-3 2-4 4-4s3 2 3 4ZM30 24c0 3 2 4 4 4s3-2 3-4c0-3-1-4-3-4s-4 2-4 4Z" fill="#EBA28C"/><path d="M6 30V20c0-7 6-13 13-13h1c7 0 13 6 13 13v10c0 7-6 13-14 13-7 0-13-6-13-13Z" fill="#FCC19C"/><path d="M20 7h-3c6 1 11 6 11 13v10c0 6-5 12-11 13h2c8 0 14-6 14-13V20c0-7-6-13-13-13Z" fill="#EBA28C"/><path d="M6 24c1 0 3 0 3-2s3-7 9-7c4-1 6-3 7-4 0 2 1 5 3 6 2 2 2 7 4 7h1v-4l1-1v-8c-1-3-5-5-5-5s-1-5-9-5S9 4 9 4 4 9 4 14l1 6 1 1v3Z" fill="#633327"/><path d="M34 11c-1-3-5-5-5-5s-1-5-9-5h-2c5 1 7 5 7 5l5 5a15 15 0 0 1-1 8c1 3 1 5 3 5h1v-4l1-1v-8ZM13 15c-4 0-7 3-8 5l1 1v3c1 0 3 0 3-2s3-7 9-7l3-1-8 1Z" fill="#572D22"/><path d="M17 26a4 4 0 1 1-7 0 4 4 0 0 1 7 0ZM29 26a4 4 0 1 1-8 0 4 4 0 0 1 8 0Z" fill="#CEE8F2"/><path d="M54 39a7 7 0 1 0-8 7v1c0 5-4 9-8 9-1-3-3-5-6-7v-1l-1-2h-2c4-2 7-6 7-11v-6c1-1 2-2 2-5s-1-4-3-5v-8c-1-3-4-5-5-6s-3-5-10-5C12 0 9 3 9 4 8 4 2 9 3 14v5c-2 1-3 2-3 5s1 5 3 5v6c0 5 3 9 7 11H8l-2 2v1c-4 2-6 7-6 11v8a1 1 0 0 0 2 0v-8c0-3 2-6 4-8v5l2 1v4l9 13H2v-2a1 1 0 0 0-2 0v3l1 1h36l2-1V60l-1-1c6-1 10-6 10-12v-1c3-1 6-4 6-7ZM36 57h-3v-5l3 5Zm-5-1-2 1c-2-1-4-1-5-3l1-6h5l1 8ZM19 44h4v1h-7v-1h3Zm-3 3h2l1 6-2-1-1-5Zm6 5-2-5h3l-1 5Zm-3 3h2l-2 14a4174 4174 0 0 0 0-14Zm6-10v-2c4-2 7-5 8-10v2c0 5-3 9-8 10Zm11-21c0 2-1 3-2 3v-6c1 0 2 1 2 3ZM10 5s3-3 10-3 8 4 8 4l1 1s3 2 4 5v7l-2 1v2-1l-2-5c-2-1-3-4-3-5a1 1 0 0 0-2 0l-6 3a1 1 0 1 0 0 2c3 0 5-2 6-3l3 5 2 3 2 4v5c0 6-5 12-12 12-6 0-12-6-12-12v-5l2-1-1 2a5 5 0 0 0 10 1h2a5 5 0 1 0 0-2h-2a5 5 0 0 0-8-2v-1l4-5a1 1 0 0 0-1-2c-3 2-5 5-5 7l-1 1v-3H6v-1l-1-5c0-3 4-7 5-9Zm1 21a3 3 0 1 1 5 0 3 3 0 0 1-5 0Zm12 0a3 3 0 1 1 5 0 3 3 0 0 1-5 0ZM5 21v6c-2 0-3-1-3-3s2-3 3-3Zm0 14v-2c1 5 5 8 9 10v2c-5-1-9-5-9-10Zm5 22-2-1v-8h6l4 24-8-11v-4Zm26 18H22l4-7a1 1 0 1 0-1-1l-4 5 2-15 5 2 1 2-1 2a1 1 0 0 0 1 1l2-2v-3h5v16Zm11-31a5 5 0 1 1 0-10 5 5 0 0 1 0 10Z" fill="#000"/></svg>