<svg width="62" height="77" fill="none" xmlns="http://www.w3.org/2000/svg"><path d="M52 68V56h8v14a5 5 0 0 1-5 5h-3v-7Z" fill="#F6BB92"/><path d="m56 45 1-3 1-2a7 7 0 0 0-1-7l-2-5v-6H27v6l-2 5a7 7 0 0 0-2 7l1 2 32 3Z" fill="#834B10"/><path d="M60 50a8 8 0 0 0-6-8h-2l-6-1-5 5-5-5-9 1v33h25V65a7 7 0 0 0 1-9h7v-6Z" fill="#85BC94"/><path d="M55 23H27v-8a14 14 0 0 1 28 0v8Z" fill="#834B10"/><path d="M51 19h-1v-7H32v7h-1a4 4 0 1 0 0 8h1v1a9 9 0 1 0 18 0v-1h1a4 4 0 1 0 0-8Z" fill="#F6BB92"/><path d="M40 51v24H11l3-4c3-2 5-5 6-8l1-3 1-1h-4a5 5 0 0 1-5-4l-1-3a3 3 0 0 1 3-3h4c1-3 3-5 5-6v-1a10 10 0 0 1 10 0 10 10 0 0 1 6 9Z" fill="#BD9070"/><path d="M40 51v4a4 4 0 1 1-8 0v-6h5l3 2ZM28 57l-3 3h-4l1-1h-4l-3-1h9l2-3a1 1 0 0 1 2 2ZM17 49v1a2 2 0 0 1-3 2h-2a3 3 0 0 1 3-3h2ZM21 72a1 1 0 0 1-1-2 24 24 0 0 0 3-7 1 1 0 0 1 3 1 26 26 0 0 1-5 8Z" fill="#9E785D"/><g fill="#834B10"><path d="M31 19a9 9 0 0 0 5-5l1-2-6-2v9ZM37 12a17 17 0 0 0 14 7v-9l-14 2ZM36 23a2 2 0 1 0 0-3 2 2 0 0 0 0 3ZM46 23a2 2 0 1 0 0-3 2 2 0 0 0 0 3Z"/><path d="M41 28h-3a1 1 0 0 1-1-2l3-5a1 1 0 1 1 2 1l-2 4h1a1 1 0 0 1 0 2Z"/></g><path d="M49 52a1 1 0 0 1-2-1v-9a1 1 0 1 1 3 0v9a1 1 0 0 1-1 1Z" fill="#C3C3C3"/><path d="M49 59a4 4 0 1 0 0-8 4 4 0 0 0 0 8Z" fill="#E4E4E2"/><path d="M49 56a1 1 0 1 0 0-2 1 1 0 0 0 0 2Z" fill="#C3C3C3"/><path d="M54 75H35a4 4 0 0 1 0-7h1a3 3 0 0 1 2-3h1l1 1 2 2h12v7ZM11 70a3 3 0 0 0 2 4l5 1a4 4 0 1 0 2-7h-1a3 3 0 0 0-2-4 3 3 0 0 0-2 1l-3 3-1 2Z" fill="#F6BB92"/><path d="m5 34 2 1 1 2 2-2a3 3 0 0 1 5 2 4 4 0 0 1-1 4l-6 4-5-4a4 4 0 0 1-2-4 3 3 0 0 1 4-3Z" fill="#DC4D41"/><path d="M31 19h1v8h-1v-8ZM50 19h1v8h-1v-8Z" fill="#EEB58E"/><path d="m36 41 5 5 5-5a1 1 0 0 1-1-1v-4h-8v4a1 1 0 0 1-1 1Z" fill="#F6BB92"/><path d="M41 37a9 9 0 0 1-9-9v-1h18v1a9 9 0 0 1-9 9Z" fill="#85BC94"/><path d="M26 51a1 1 0 1 0 0-2 1 1 0 0 0 0 2Z" fill="#9E785D"/><path d="M36 23a2 2 0 1 0 0-3 2 2 0 0 0 0 3ZM46 23a2 2 0 1 0 0-3 2 2 0 0 0 0 3ZM49 56a1 1 0 1 0 0-2 1 1 0 0 0 0 2Z" fill="#000"/><path d="m58 43 1-3a8 8 0 0 0-1-8 5 5 0 0 1-2-4V15a15 15 0 0 0-30 0v13l-2 4a8 8 0 0 0-2 8l1 2-5 5h-3a4 4 0 0 0-4 4v2l1 2a6 6 0 0 0 6 5h2l-1 3h-2a4 4 0 0 0-3 0c-1 1-3 3-3 5l-1 1a4 4 0 0 0 1 5l-1 1a1 1 0 0 0 1 2h44a6 6 0 0 0 6-7V50a9 9 0 0 0-3-7Zm1 7v5h-5v-1a5 5 0 0 0-4-4v-7h2l1 1a6 6 0 0 1 6 6Zm-8 14v3h-8l-2-2V51l-1-4a1 1 0 0 0 2 0l3-5h1l1 1v7a5 5 0 1 0 6 8 6 6 0 0 1-2 6ZM31 20v6a3 3 0 0 1 0-6Zm23 3a3 3 0 0 1-3 3v-6a3 3 0 0 1 3 3Zm-5 3h-9l2-4a1 1 0 1 0-2-1l-2 5h-5v-7l4-4v-1c3 3 7 6 12 6v6Zm-11 2h11a8 8 0 0 1-16 0h5Zm3 10h2v2h1l-3 4-3-4v-2h3Zm-3 17a3 3 0 1 1-5 0v-5h4l1 2v3Zm13 0a3 3 0 1 1-5 0 3 3 0 0 1 5 0Zm6-16-1 3-2-1h-1l-7-1v-3a10 10 0 0 0 5-9l3-1v1a8 8 0 0 0 2 6 5 5 0 0 1 1 5ZM41 3a13 13 0 0 1 13 12v4l-3-1a15 15 0 0 1-13-7 1 1 0 0 0-2 0l-1 3a7 7 0 0 1-5 4l-2 1v-4A13 13 0 0 1 41 3ZM26 34a8 8 0 0 0 2-6v-1l3 1a10 10 0 0 0 5 9v3h-3a11 11 0 0 0-8 1v-2a5 5 0 0 1 1-5ZM15 50a1 1 0 0 1-1 1 1 1 0 0 1 1-1Zm9 10a1 1 0 0 0 1 0l3-3a1 1 0 0 0-2-2l-2 3h-6a4 4 0 0 1-4-3v-1a4 4 0 0 0 4-4h1a1 1 0 0 0 1-1l5-5v-1a9 9 0 0 1 8 0h1a9 9 0 0 1 4 4h-6a1 1 0 0 0-1 2v6a5 5 0 0 0 7 4v5a4 4 0 0 0-3 3 5 5 0 0 0-5 7h-6a5 5 0 0 0 0-5l2-5a1 1 0 0 0-3 0l-1 3h-2v-1l1-2 2-4h1ZM12 70l1-1c1-2 1-3 3-3a1 1 0 0 1 1 0 1 1 0 0 1 1 1 1 1 0 0 0 1 2h1a3 3 0 0 1-2 5l-4-1a2 2 0 0 1-2-3Zm47 0a4 4 0 0 1-4 4H35a3 3 0 1 1 0-5h1a1 1 0 0 0 1-1 1 1 0 0 1 1-1h1l2 2a1 1 0 0 0 1 0h10a1 1 0 0 0 2-1v-2a9 9 0 0 0 1-8h4v12Z" fill="#000"/><path d="M17 36a4 4 0 0 0-8-2l-1 1v-1a4 4 0 0 0-8 2 5 5 0 0 0 2 6l6 4a1 1 0 0 0 1 0l5-4a5 5 0 0 0 3-6Zm-4 4-5 3-4-3a3 3 0 0 1-1-3 2 2 0 0 1 3-1l1 2a1 1 0 0 0 2 0l2-2a2 2 0 0 1 3 1 3 3 0 0 1-1 3ZM26 51a1 1 0 1 0 0-2 1 1 0 0 0 0 2Z" fill="#000"/></svg>