<svg width="21" height="22" fill="none" xmlns="http://www.w3.org/2000/svg"><path d="M20 7h-2l-2 1V4l-1-2-1-1-2-1H2L0 2v17l2 2h12l2-2v-5l4-5V7Zm-8-6h1l2 2v1h-3V1Zm3 18-1 1H2l-1-1V2l1-1h9v3l1 1h3v5l-2 2h-1v1l-1 2a1 1 0 0 0 1 1l2-1h1v4Zm-2-6 1 1h-1v-1Zm2 0-1-1 3-3 1 1-3 3Zm5-5-1 1-1-1 1-1a1 1 0 0 1 1 1Z" fill="#fff"/><path d="M12 6H3a1 1 0 0 0 0 1h9a1 1 0 0 0 0-1ZM9 9H3a1 1 0 0 0 0 1h6a1 1 0 0 0 0-1ZM9 11H3a1 1 0 1 0 0 1h6a1 1 0 0 0 0-1ZM9 14H3a1 1 0 0 0 0 1h6a1 1 0 0 0 0-1ZM12 17H8a1 1 0 0 0 0 2h4a1 1 0 0 0 0-2Z" fill="#fff"/></svg>