<svg width="72" height="78" fill="none" xmlns="http://www.w3.org/2000/svg"><path d="M31 26v-4a4 4 0 0 1 1-3l6-4a3 3 0 0 1 4 2v5a6 6 0 0 1-1 4l-2 2v6a4 4 0 0 1-2 3l-4 2h-2V26ZM13 26v-4a4 4 0 0 0-2-3l-5-4a3 3 0 0 0-5 2v5a6 6 0 0 0 2 4l2 2v6a4 4 0 0 0 2 3l3 2h3V26Z" fill="#E08122"/><path d="M32 31a1 1 0 0 1-1-2l5-6v-2a1 1 0 0 1 3 0v2l-1 1-5 7a1 1 0 0 1-1 0ZM12 31a1 1 0 0 1-1 0l-6-7v-3a1 1 0 1 1 3 0v2l5 6a1 1 0 0 1-1 2Z" fill="#BF6E1D"/><path d="m33 70-1 1h2a3 3 0 0 1 2 3v2H8v-2a3 3 0 0 1 1-3h1l-2-3-2-3v-5a3 3 0 0 1 1-2l3-3 3-6h18l2 6 4 3a3 3 0 0 1 0 2v4a5 5 0 0 1-2 4l-2 2ZM31 49H13l-3-7V30l2-3 2-2h15l3 2 1 3v12l-2 7Z" fill="#FD9226"/><path d="M27 53a4 4 0 0 1-4-2l-1-2-1 2a4 4 0 0 1-8-2v-2a4 4 0 0 1 4-5h10a4 4 0 0 1 4 5v2a4 4 0 0 1-4 4Z" fill="#985713"/><g fill="#E08122"><path d="M14 72v4h-2v-4l-2-2v-7a1 1 0 0 1 3 0v6l1 2v1ZM21 63v6l-1 1-1 2v4h-2v-5l1-2v-6a1 1 0 1 1 3 0ZM33 63v8l-1 1v4h-2v-5l1-2v-6a1 1 0 0 1 2 0ZM27 72v4h-3v-4l-1-2v-7a1 1 0 1 1 3 0v6l1 2v1Z"/></g><path d="M22 48a3 3 0 1 0 0-6 3 3 0 0 0 0 6Z" fill="#70400E"/><path d="M17 38a2 2 0 1 0 0-4 2 2 0 0 0 0 4ZM27 38a2 2 0 1 0 0-4 2 2 0 0 0 0 4Z" fill="#985713"/><path d="M53 48v24a5 5 0 0 1-11 0v-5a1 1 0 0 0-1-1h-9a1 1 0 1 1 0-3h9a4 4 0 0 1 4 4v5a3 3 0 1 0 5 0V48a1 1 0 1 1 3 0Z" fill="#DBDBDB"/><path d="M51 26a5 5 0 0 1-3-2 1 1 0 0 1 2-2 3 3 0 1 0 1-4 1 1 0 0 1-1-1V5a1 1 0 0 1 3 0v11a5 5 0 0 1-2 10Z" fill="#878787"/><path d="M67 6H50a3 3 0 1 1 0-5h17v5Z" fill="#CBCBCB"/><path d="M62 6h5v65h-5V6Z" fill="#985713"/><path d="M71 76H58a7 7 0 0 1 3-6l1-1h5l1 1a7 7 0 0 1 3 6Z" fill="#70400E"/><path d="M45 51h3v3h-3v-3ZM45 57h3v5h-3v-5Z" fill="#C0F5F9"/><path d="M23 62h10v5H23v-5Z" fill="#6B9777"/><path d="M51 31a1 1 0 0 1-1-1v-6a1 1 0 1 1 3 0v6a1 1 0 0 1-2 1Z" fill="#CBCBCB"/><path d="M53 48v1h-3v-1a1 1 0 1 1 3 0Z" fill="#C3C3C3"/><path d="M62 6h5v3h-5V6Z" fill="#70400E"/><path d="M33 63h2v3h-2v-3Z" fill="#C3C3C3"/><path d="M46 30h11v12a5 5 0 1 1-11 0V30Z" fill="#EBEBEB"/><path d="M51 48a5 5 0 0 1-5-6v-7h11v7a5 5 0 0 1-6 6Z" fill="#C0F5F9"/><path d="M54 40h-1v-1h-3v1h-1v2h1v2h3v-2h1v-2Z" fill="#85BC94"/><path d="M46 35h11v1H46v-1Z" fill="#B8EAEE"/><path d="M17 38a2 2 0 1 0 0-4 2 2 0 0 0 0 4ZM27 38a2 2 0 1 0 0-4 2 2 0 0 0 0 4Z" fill="#000"/><path d="M4 29v5a5 5 0 0 0 3 4l2 1v4l2 6-2 6-3 2a4 4 0 0 0-1 3v5a6 6 0 0 0 2 4l1 1a4 4 0 0 0-2 4v2a1 1 0 0 0 2 1h28a1 1 0 0 0 1-1v-2a4 4 0 0 0-2-4l1-1 2-3h3a1 1 0 0 1 1 1v5a5 5 0 0 0 11 0V49a6 6 0 0 0 5-7V30a1 1 0 0 0-1-2h-4v-2a5 5 0 0 0 0-10V8h7v61a8 8 0 0 0-3 7 1 1 0 0 0 1 1h13a1 1 0 0 0 1-1 8 8 0 0 0-4-7V1a1 1 0 0 0-1-1H50a4 4 0 1 0 0 8v9a1 1 0 0 0 1 1 3 3 0 1 1-1 4 1 1 0 1 0-2 2l2 2v2h-4a1 1 0 0 0-1 2v12a6 6 0 0 0 5 7v23a3 3 0 0 1-5 0v-5a4 4 0 0 0-4-4h-2v-3a4 4 0 0 0-2-3l-2-2-3-6 3-6v-4l2-1a5 5 0 0 0 3-4v-5l2-2a7 7 0 0 0 2-5v-5a4 4 0 0 0-7-3l-6 4a5 5 0 0 0-1 4v2H14v-2a5 5 0 0 0-2-4l-5-4a4 4 0 0 0-7 1v7a7 7 0 0 0 2 5l2 2Zm63 42 2 4H59l3-4h5Zm-4-3V8h3v60h-3ZM50 5a1 1 0 1 1 0-2h16v2H50Zm-2 26h7v2h-7v-2Zm0 11v-6h7v6a4 4 0 0 1-7 0ZM12 75H9v-1a1 1 0 0 1 1-2h2v3Zm19-6-1 2v4h-3v-4l-1-2v-1h5v1Zm0-3h-5v-3h5v3Zm4 9h-3v-3l2 1a1 1 0 0 1 1 1v1Zm-1-8-1 1v-2h3l-2 1Zm-1-11 3 3a1 1 0 0 1 0 1v3h-3v-1a1 1 0 0 0-1-2h-8a1 1 0 0 0-1 2v8l1 2v3h-5v-3l1-2 1-1v-6a1 1 0 1 0-3 0v6l-1 2v4h-3v-4l-1-2v-6a1 1 0 0 0-3 0v6l-1-2-1-2v-5a1 1 0 0 1 0-1l3-3 2-4a5 5 0 0 0 9 0v-1 1a5 5 0 0 0 9 0l1 4h1Zm-13-7-1 1a3 3 0 0 1-5-1v-2a3 3 0 0 1 3-3h1a4 4 0 0 0 2 5Zm1-4a1 1 0 1 1 2 0 1 1 0 0 1-2 0Zm4-1h2a3 3 0 0 1 3 3v2a3 3 0 0 1-6 1l-1-1a4 4 0 0 0 2-5Zm7-22a3 3 0 0 1 1-2l6-4a2 2 0 0 1 2 0 2 2 0 0 1 0 1v5a4 4 0 0 1-1 3l-2 2-1 1v6a2 2 0 0 1-1 2h-1v-7l3-5 1-1v-2a1 1 0 1 0-3 0v2l-3 3-1-1v-3Zm-19 6 2-1h14l2 1a4 4 0 0 1 1 2v12l-1 2a5 5 0 0 0-4-3H17a5 5 0 0 0-5 3V30a4 4 0 0 1 1-2ZM3 17a2 2 0 0 1 2-1l6 4a3 3 0 0 1 1 2v3l-1 1h-1l-2-3v-2a1 1 0 1 0-3 0v3l4 5v7H8a2 2 0 0 1-2-2v-6a1 1 0 0 0 0-1l-2-2a4 4 0 0 1-1-3v-5Z" fill="#000"/><path d="M53 44v-2h1v-2h-1v-1h-3v1h-1v2h1v2h3ZM45 51h3v3h-3v-3ZM45 57h3v5h-3v-5Z" fill="#000"/></svg>