<svg width="76" height="76" fill="none" xmlns="http://www.w3.org/2000/svg"><path d="M75 61v14H22l-2-3a1 1 0 0 1 0-2l3-2v-5l-4-10-1-2-2-3-2-5c-2-3-3-7-3-11v-9l-6-1a4 4 0 0 1-3-4v-2l-1-5h9l2-3a11 11 0 0 1 11-7l5 1a8 8 0 0 1 6 3l5 8 4 6c3 6 8 11 13 15l9 6a26 26 0 0 1 10 21Z" fill="#F3AF3E"/><path d="m25 10-1 7a9 9 0 0 0 8 10h2V10a3 3 0 0 0-3-3h-3a3 3 0 0 0-3 3ZM61 68a1 1 0 0 1-2 0H49a4 4 0 0 0-3 4v3h-3v-3a6 6 0 0 1 6-6h8c-3-4-5-9-5-14a1 1 0 1 1 2 0c0 5 2 9 5 13l1 1a1 1 0 0 1 1 2Z" fill="#C38325"/><path d="M68 33a20 20 0 0 1-2 9 20 20 0 1 1 2-9Z" fill="#C0F5F9"/><path d="M6 11v1a3 3 0 0 1-2 3l-2 1-1-5h5ZM18 12a3 3 0 1 0 0-5 3 3 0 0 0 0 5Z" fill="#C38325"/><path d="M44 59h8v16h-8V59Z" fill="#428DC5"/><path d="M68 34a20 20 0 0 1-7 15 20 20 0 0 1-33-15h40Z" fill="#EEB58E"/><path d="M41 38h2v3h-2v-3Z" fill="#F55648"/><path d="M41 44h2v3h-2v-3Z" fill="#B94137"/><path d="M52 44h2v3h-2v-3ZM57 44h2v3h-2v-3Z" fill="#F55648"/><path d="M54 41h3v2h-3v-2Z" fill="#B94137"/><path d="m30 69-2 2 2 3v1h-2l-2-3a3 3 0 0 1 0-3l2-1v-7l-9-8-1-2-2-3h1l13 12a1 1 0 0 1 0 1v8ZM38 58v17h-3V59l-2-4a1 1 0 1 1 2-1l3 4Z" fill="#C38325"/><path d="M68 34v1H28v-1h40Z" fill="#BD9070"/><g fill="#744630"><path d="M54 19c-4 6-6 13-7 20a2 2 0 0 0 4 2 2 2 0 0 0 1-2v-5l1-10 1-5ZM66 23v1l-2 10v7a2 2 0 0 1-5-2h1c0-6 2-12 5-17l1 1ZM39 19c-4 6-7 13-7 20a2 2 0 0 0 4 2 2 2 0 0 0 1-2v-5l1-10 1-5Z"/></g><path d="M70 33a22 22 0 1 0-27 21v5h10v-5c10-2 17-11 17-21ZM48 52a19 19 0 1 1 0-38 19 19 0 0 1 0 38Z" fill="#428DC5"/><path d="M44 59h8v3h-8v-3Z" fill="#3775A4"/><path d="M18 12a3 3 0 1 0 0-5 3 3 0 0 0 0 5ZM41 38h2v3h-2v-3ZM41 44h2v3h-2v-3ZM52 44h2v3h-2v-3ZM57 44h2v3h-2v-3ZM54 41h3v2h-3v-2Z" fill="#000"/><path d="M1 18a5 5 0 0 0 4 5l5 1v8l3 12 4 7 5 13v4l-3 1a3 3 0 0 0 0 4l1 2a1 1 0 0 0 2 1h53a1 1 0 0 0 1-1V61a27 27 0 0 0-8-19 21 21 0 0 0-1-19l1-4a1 1 0 0 0-2-1l-1 2a21 21 0 0 0-25-7l-5-8a9 9 0 0 0-7-5h-5a13 13 0 0 0-12 7l-2 3H1a1 1 0 0 0-1 1l1 7Zm27 50-2 1a3 3 0 0 0 0 3l1 1h-5l-1-2 2-2a1 1 0 0 0 1-1v-5l-3-8 7 6v7Zm23 5h-5V61h5v12Zm1-15h-8v-4h8v4Zm14-31 1 6h-1v-6Zm0 12v-4h1l-1 5v-1Zm1 5c4 4 6 10 6 17v12H53v-5h6a1 1 0 0 0 1-2l-1-1c-3-4-4-7-5-12 6-1 10-5 13-9ZM53 66v-5h1l3 5h-4Zm12-24a19 19 0 0 1-33 0 4 4 0 0 0 5 0 4 4 0 0 0 1-3v-4h8v4a4 4 0 0 0 6 3 4 4 0 0 0 1-3v-4h6l-1 4a4 4 0 0 0 7 3Zm-32-3 3-12-1 7v5a1 1 0 0 1 0 1 1 1 0 0 1-2-1Zm15 0 3-12v12a1 1 0 0 1-1 1 1 1 0 0 1-2-1Zm15-5v5a1 1 0 0 1 0 1 1 1 0 0 1-2-1l3-12-1 7ZM38 14l-3 2v-6l3 4Zm10 0a19 19 0 0 1 16 8l-5 11h-6l1-8 2-6a1 1 0 0 0-3-1l-6 15h-9l1-8 1-6a1 1 0 0 0-2-1l-7 15h-2a19 19 0 0 1 19-19ZM30 40l-1-5h2l-1 4v1Zm-2-15a8 8 0 0 1-3-8l1-7a2 2 0 0 1 2-2h3a2 2 0 0 1 2 2v8l-5 7ZM8 12h2a1 1 0 0 0 1-1l2-3a10 10 0 0 1 10-5h5a7 7 0 0 1 5 3h-5a5 5 0 0 0-4 4l-1 7a10 10 0 0 0 4 10 21 21 0 0 0 15 26v6a1 1 0 0 0 1 2v12h-5V58l-3-4a1 1 0 1 0-2 1l2 4v14h-5l-2-2 2-2v-8a1 1 0 0 0 0-1L19 50l-4-7-2-11v-9a1 1 0 0 0-1-1l-7-2a3 3 0 0 1-2-2v-1h1a5 5 0 0 0 4-5Zm-3 0a2 2 0 0 1-2 2v-2h2Z" fill="#000"/></svg>