<svg width="76" height="76" fill="none" xmlns="http://www.w3.org/2000/svg"><path d="M75 19v38H57v18H19V57H1V19h18V1h38v18h18Z" fill="#6B9777"/><path d="M72 19v38H54v18H19V57H1V19h18V1h35v18h18Z" fill="#85BC94"/><path d="M20 51h-1a5 5 0 0 1-5-4l-1-6h-1a8 8 0 0 0-3 7c1 3 2 6 5 8l3 1h3v-6Z" fill="#744630"/><path d="m53 72-1 3H19V56l1-8 1-2c1-4 3-7 6-10l5-8 2-3v-1h-3a5 5 0 0 1-5-4l-1-2v-1a3 3 0 0 1 2-3h5c0-3 2-5 4-6h1a10 10 0 0 1 9-1 10 10 0 0 1 6 9v55l1 1Z" fill="#F3AF3E"/><path d="M26 75a6 6 0 0 1-6-6v-1a6 6 0 0 1 3-5 7 7 0 0 0 2-5v-1a1 1 0 1 1 3 0v1a10 10 0 0 1-4 7 3 3 0 0 0-1 3v1a3 3 0 0 0 6 0v-1a4 4 0 0 1 4-3 1 1 0 1 1 0 2 1 1 0 0 0-1 1v1a6 6 0 0 1-6 6Z" fill="#CD761F"/><path d="m53 72-1 3H38a8 8 0 0 1-8-8l1-5c1-4 4-7 7-10l2-1 2-4h-5a3 3 0 0 1-3-3v-3h4v-1a5 5 0 0 1 4-4l2-1v-3l4 2 2 3 2 7v27l1 1Z" fill="#E08122"/><path d="m44 46-1 2h-2l1-1h-5a3 3 0 0 1-2-1h6l1-1a1 1 0 0 1 2 1ZM47 58a1 1 0 0 0-1 1v10l-2-1h-1a6 6 0 0 0-5-9 1 1 0 1 0 0 3 3 3 0 0 1 3 5l-2 2a1 1 0 0 0 2 2h3a2 2 0 0 1 2 1v3h2V59a1 1 0 0 0-1-1Z" fill="#CD761F"/><path d="M52 16v4a4 4 0 1 1-8 0v-6h5l3 2Z" fill="#744630"/><g fill="#D18D28"><path d="m40 22-2 3h-4v-1h-3l-4-1h9l2-2a1 1 0 1 1 2 1ZM29 14v2a1 1 0 0 1-1 2h-3v-1a3 3 0 0 1 2-3h2ZM33 37a1 1 0 0 1-1-2l4-6a1 1 0 0 1 2 1 26 26 0 0 1-4 7h-1ZM24 56a1 1 0 0 1-1-2c0-4 1-8 4-12a1 1 0 1 1 2 2c-2 3-4 7-4 10a1 1 0 0 1-1 2ZM38 16a1 1 0 1 0 0-2 1 1 0 0 0 0 2Z"/></g><path d="M43 42a1 1 0 1 0 0-3 1 1 0 0 0 0 3Z" fill="#CD761F"/><path d="M75 18H58V1a1 1 0 0 0-1-1H19a1 1 0 0 0-1 1v17H1a1 1 0 0 0-1 1v38a1 1 0 0 0 1 1h17v17a1 1 0 0 0 1 1h38a1 1 0 0 0 1-1V58h17a1 1 0 0 0 1-1V19a1 1 0 0 0-1-1ZM18 56h-1l-2-1c-2-2-4-4-4-7-1-2 0-3 1-5l1 4a6 6 0 0 0 5 5v4Zm2 17v-4a6 6 0 0 0 2 4h-2Zm9-5v1a3 3 0 0 1-6 0v-1a3 3 0 0 1 1-3 9 9 0 0 0 4-7v-1a1 1 0 0 0-3 0v1a7 7 0 0 1-2 5 6 6 0 0 0-3 5V56l1-5v-3l1-2 6-9 5-8 2-4h2a1 1 0 0 0 1 0l2-3a1 1 0 1 0-2-1l-2 2h-5a4 4 0 0 1-4-3v-1h1a3 3 0 0 0 2-3v-1h2a1 1 0 0 0 1-1l4-5h1a9 9 0 0 1 8-1v1c2 0 3 2 4 4h-6a1 1 0 0 0-1 1v6a5 5 0 0 0 8 4v11l-2-2-4-2a1 1 0 0 0-2 1v2l-1 1a7 7 0 0 0-5 4h-3a1 1 0 0 0-1 2v3a5 5 0 0 0 4 4h3l-1 2-1 1c-4 3-7 6-8 10v1a17 17 0 0 0-1 6Zm-3-52a1 1 0 0 1 1-1h1v1h-2Zm25 1v3a3 3 0 1 1-5 0v-5h3l2 2ZM30 73l1-1 1 1h-2Zm21 0h-3V59a1 1 0 0 0-2 0v10l-2-1h-1a6 6 0 0 0-5-9 1 1 0 1 0 0 3 3 3 0 0 1 3 5l-2 2a1 1 0 0 0 2 2h3a2 2 0 0 1 2 1v1h-8a7 7 0 0 1-6-6v-5c1-3 4-7 7-9l2-1 2-4 1-2a1 1 0 1 0-2-1l-1 1h-4a2 2 0 0 1-2-2v-2h3a1 1 0 0 0 1-1v-1a4 4 0 0 1 3-3h3a1 1 0 0 0 1-2v-1l1 1 2 3 2 6v27a1 1 0 0 0 0 1h1l-1 1Zm22-17H57a1 1 0 0 0-1 1v16h-2a1 1 0 0 0 0-2l-1-1V16a11 11 0 0 0-6-10 11 11 0 0 0-11 1c-3 1-4 3-5 6h-4a4 4 0 0 0-3 4v4a6 6 0 0 0 7 4h1l-1 3-5 7v1c-3 2-5 6-6 10l-1 2v1a4 4 0 0 1-4-2l-1-7a1 1 0 0 0-2 0h-1a10 10 0 0 0-3 9l4 7H3V20h16a1 1 0 0 0 1-1V3h36v16a1 1 0 0 0 1 1h16v36Z" fill="#000"/><path d="M32 37a1 1 0 0 0 2 0l4-7a1 1 0 0 0-2-1l-4 6a1 1 0 0 0 0 2ZM29 42a1 1 0 0 0-2 0c-3 4-4 8-4 12a1 1 0 0 0 2 0c0-3 2-7 4-10a1 1 0 0 0 0-2ZM38 16a1 1 0 1 0 0-2 1 1 0 0 0 0 2ZM43 42a1 1 0 1 0 0-3 1 1 0 0 0 0 3Z" fill="#000"/></svg>