<svg width="78" height="78" fill="none" xmlns="http://www.w3.org/2000/svg"><path d="M40 6H26a2 2 0 1 1 0-5h14a2 2 0 1 1 0 5ZM28 52h10v4H28v-4Z" fill="#716680"/><path d="M27 6h12v6H27V6Z" fill="#D6CFC4"/><path d="M34 6h5v6h-5V6Z" fill="#C4BEB4"/><path d="M69 31v32h-9V31c0-3-3-6-6-6h-9v-9h10c7 0 14 7 14 15Z" fill="#716680"/><path d="M55 16h-5c8 0 14 7 14 15v32h5V31c0-8-7-15-14-15Z" fill="#635870"/><path d="M56 77H22c-5 0-9-4-9-9h52c0 5-4 9-9 9Z" fill="#716680"/><path d="M60 68c0 5-4 9-9 9h5c5 0 9-4 9-9h-5Z" fill="#635870"/><path d="M42 52H24c-2 0-3-2-3-3V15c0-2 1-3 3-3h18c2 0 3 1 3 3v34c0 1-1 3-3 3Z" fill="#E8E1D5"/><path d="M42 12h-5c2 0 4 1 4 3v34c0 1-2 3-4 3h5c2 0 3-2 3-3V15c0-2-1-3-3-3Z" fill="#D6CFC4"/><path d="M51 21a6 6 0 1 1-12 0 6 6 0 0 1 12 0Z" fill="#FFBD54"/><path d="M47 21a2 2 0 1 1-4 0 2 2 0 0 1 4 0Z" fill="#FF573D"/><path d="M75 68H3a2 2 0 1 1 0-5h72a2 2 0 1 1 0 5Z" fill="#E8E1D5"/><path d="M75 63h-5a2 2 0 1 1 0 5h5a2 2 0 1 0 0-5Z" fill="#D6CFC4"/><path d="M45 24a3 3 0 1 0 0-7 3 3 0 0 0 0 7Zm0-4a1 1 0 1 1 0 2 1 1 0 0 1 0-2Z" fill="#000"/><path d="M75 62h-5v-1a1 1 0 1 0-2 0v1h-7V31c0-4-3-7-7-7h-3a7 7 0 0 0 1-7h3c7 0 13 6 13 14v26a1 1 0 1 0 2 0V31c0-9-7-16-15-16h-5l-4-1c-1-2-2-3-4-3h-2V7a3 3 0 0 0 0-7H26a3 3 0 0 0 0 7v4h-2c-3 0-4 2-4 4v4a1 1 0 0 0 2 0v-4l2-2h18l1 1a7 7 0 0 0 1 14v21l-2 2H24l-2-2V24a1 1 0 1 0-2 0v25c0 2 1 4 4 4h2v3l2 1h10l1-1v-3h3c2 0 4-2 4-4V28l3-1h5c3 0 5 2 5 4v31H3a3 3 0 0 0 0 7h9c1 5 5 9 10 9h34c5 0 9-4 10-9h9a3 3 0 0 0 0-7ZM25 3l1-1h14a1 1 0 0 1 0 3H26l-1-2Zm3 8V7h10v4H28Zm9 44h-8v-2h8v2Zm3-34a5 5 0 1 1 5 5c-3 0-5-2-5-5Zm35 46H21a1 1 0 1 0 0 2h43c-1 4-4 7-8 7H22c-4 0-7-3-8-7h2a1 1 0 1 0 0-2H3a1 1 0 0 1 0-3h72a1 1 0 0 1 0 3Z" fill="#000"/><path d="M25 48h16a1 1 0 1 0 0-2H25a1 1 0 1 0 0 2ZM25 44h16a1 1 0 1 0 0-2H25a1 1 0 1 0 0 2Z" fill="#000"/></svg>