<svg width="22" height="21" fill="none" xmlns="http://www.w3.org/2000/svg"><path d="m15 11 1 2h-1l-1-1-1 1 1 1 2 1-1 2h-1l-1-2 1 1 1-1-1-1-1-1 1-2h1ZM16 9a5 5 0 0 1 3 7l-1 1v-1a5 5 0 0 0-2-6V9ZM15 9ZM10 12a5 5 0 0 0 2 6v1a5 5 0 0 1-2-8v1ZM14 19h-1 1Z" fill="#fff" stroke="#fff" stroke-width=".2"/><path d="M16 7a7 7 0 1 1-7 12H4a2 2 0 0 1-1-4 2 2 0 0 1 0-3 2 2 0 0 1 0-3 2 2 0 0 1 1-3h1a2 2 0 0 1 0-2H2a2 2 0 0 1 0-4h10a2 2 0 0 1 2 3h-1 4a2 2 0 0 1 0 4h-1Zm-1 0H4a1 1 0 0 0 0 2h5a7 7 0 0 1 6-2Zm-6 3H4a1 1 0 0 0 0 2h4l1-2Zm-2 3H4a1 1 0 0 0 0 2h3a7 7 0 0 1 0-2Zm0 3H4a1 1 0 0 0 0 2h5-1l-1-2ZM18 5l-1-1H7a1 1 0 0 0 0 2h10l1-1ZM1 2l1 1h10a1 1 0 0 0 0-2H2L1 2Zm7 12a6 6 0 1 0 13 0 6 6 0 0 0-13 0Z" fill="#fff" stroke="#fff" stroke-width=".2"/></svg>