<svg width="28" height="27" fill="none" xmlns="http://www.w3.org/2000/svg"><path d="M24 17c-3-3-5-7-11-5-2 0-4 2-5 4l-1 5c0 3 3 4 5 3l8-2h2c2-1 3-3 2-5Z" fill="#FBDD7B"/><path d="M22 22c2-1 3-3 2-5-3-3-5-7-11-5l3 11 6-1Z" fill="#FECB3E"/><path d="m17 16-2 1v-1a1 1 0 1 0-1 0v1h-1a1 1 0 0 0 0 2l2-1v1a1 1 0 0 0 1 0v-1h1a1 1 0 1 0 0-2Z" fill="#FFF8E0"/><path d="M16 19v-1h1a1 1 0 1 0 0-2l-2 1v-1l-1-1 2 5v-1Z" fill="#FFE799"/><path d="M21 6a2 2 0 0 0 2 5c1 0 2-2 1-3 0-1-1-2-3-2ZM16 9c2 0 3-2 2-4 0-2-2-3-3-3-2 0-3 2-2 4 0 2 2 3 3 3Z" fill="#FECB3E"/><g fill="#FBDD7B"><path d="M9 11c2-1 3-2 2-4 0-2-2-3-3-3-2 0-3 2-2 4 0 2 2 3 3 3ZM4 11l-2 3 3 2a2 2 0 0 0-1-5Z"/></g></svg>