<svg width="178" height="87" fill="none" xmlns="http://www.w3.org/2000/svg"><path d="M11 38 0 33l12-6C12 11 28 7 35 8c6 1 25 12 18 36-3 8-2 30 28 28-2 4-13 22-48 10-10-3-24-18-22-44Z" fill="#FFBD54"/><path d="M111 33c1-12-5-22-9-25-3-2-3 8-6 13a37 37 0 0 0-28 0c-3-5-3-15-7-13-3 3-9 13-8 25-4 5-6 11-6 17 0 18 16 31 35 31s35-13 35-31c0-6-3-12-6-17Z" fill="#78C0DE"/><path d="M109 52c1-16 7-18 8-27 1-14 10-24 15-25 4-1-1 13 3 17 8-3 14 0 18 4 4 5-1 10 7 8l10 1 1-1c3-1 5 1 6 4v3l1 1c-1 8-11 20-17 20-7 1-13 0-13 13-1 16-38 23-47 6 7-5 7-11 8-24Z" fill="#000"/><path d="M137 22c4 1 8-2 11-4h-5c-2-5 5-15 1-15-3 0-12 5-17 14 3 2 6 5 10 5Z" fill="#000"/><path d="M38 34h-1l-4 3-3 13-7-11c-1-2-3-2-4-2h-1l-2 3v3l12 19v1a1 1 0 0 0 1 0v1h4l1-1h1v-2l6-22v-3l-3-2ZM82 34c-10 0-17 8-17 18s8 17 17 17c5 0 9-2 13-5l1-3-1-3-4-1-3 1a9 9 0 0 1-6 2c-2 0-4-1-5-3l-2-2h19c2 0 4-1 5-4v-1c-1-9-8-16-17-16Zm7 13H75c1-2 3-4 7-4 3 0 6 2 7 4ZM138 50c3 0 5-2 5-4 0-3-1-5-4-6l1-7c0-3-2-5-5-5-2 0-4 1-5 4v7h-1c-3 0-5 2-5 5 0 2 2 4 4 5h1l-2 15c-1 5 3 9 7 9 3 0 5-1 5-4 0-2-1-4-3-5l2-14Z" fill="#fff"/></svg>